<svg width="154" height="151" viewBox="0 0 154 151" fill="none" xmlns="http://www.w3.org/2000/svg">
<path d="M77.0675 126C109.867 126 136.467 99.6 136.467 67C136.467 34.4 109.867 8 77.0675 8C44.2675 8 17.6675 34.4 17.6675 67C17.6675 99.6 44.2675 126 77.0675 126Z" fill="#EAEEF9"/>
<path d="M134.95 38.8C137.214 38.8 139.05 36.9643 139.05 34.7C139.05 32.4356 137.214 30.6 134.95 30.6C132.685 30.6 130.85 32.4356 130.85 34.7C130.85 36.9643 132.685 38.8 134.95 38.8Z" fill="#EAEEF9"/>
<path d="M130.85 25.5C132.396 25.5 133.65 24.2464 133.65 22.7C133.65 21.1536 132.396 19.9 130.85 19.9C129.303 19.9 128.05 21.1536 128.05 22.7C128.05 24.2464 129.303 25.5 130.85 25.5Z" fill="#EAEEF9"/>
<path d="M17.4499 34.7C18.9963 34.7 20.2499 33.4464 20.2499 31.9C20.2499 30.3536 18.9963 29.1 17.4499 29.1C15.9035 29.1 14.6499 30.3536 14.6499 31.9C14.6499 33.4464 15.9035 34.7 17.4499 34.7Z" fill="#EAEEF9"/>
<path d="M11.15 96.3C14.0218 96.3 16.35 93.9719 16.35 91.1C16.35 88.2281 14.0218 85.9 11.15 85.9C8.27807 85.9 5.94995 88.2281 5.94995 91.1C5.94995 93.9719 8.27807 96.3 11.15 96.3Z" fill="#EAEEF9"/>
<g filter="url(#filter0_d_2330_10758)">
<path d="M131.793 52.393V106.534C131.793 106.757 131.793 106.869 131.793 107.092C131.681 110.217 130.23 112.897 127.997 114.794C126.1 116.469 123.532 117.585 120.741 117.585H33.335C31.4373 117.585 29.6512 117.139 28.0883 116.245C27.4186 115.911 26.7488 115.464 26.1906 114.906C24.9627 113.901 23.8464 112.45 23.2882 110.887C22.8417 109.771 22.5068 108.543 22.5068 107.315V52.393C22.5068 52.393 27.0837 48.486 33.6699 43.1277C40.4793 37.4346 49.4097 30.067 57.2238 23.5924C61.689 19.797 61.2425 20.2435 68.1636 14.4387C73.4102 9.97354 81.1127 9.97354 86.3593 14.4387C87.6989 15.5551 89.1501 16.8946 90.4896 18.0109C93.392 20.3552 96.5177 23.0343 99.8666 25.825C106.899 31.6298 114.602 38.1044 120.63 43.1277C126.769 48.1511 131.235 51.9465 131.793 52.393Z" fill="url(#paint0_linear_2330_10758)"/>
</g>
<path d="M120.63 43.016V62.4397L101.541 73.9376L95.8478 77.3981L83.7917 84.6541L78.0986 88.1146L75.6427 89.5658L73.2985 88.1146L67.9403 84.6541L56.4424 77.3981L51.0841 73.9376L33.4465 62.8862V43.1277C40.256 37.4345 49.1864 30.0669 57.0005 23.5924L99.7549 25.7133C106.899 31.6297 114.602 37.9927 120.63 43.016Z" fill="#989FB0"/>
<path d="M116.834 27.6111V61.77L99.4199 72.1516L94.2849 75.2772L83.2335 81.7518L78.0985 84.8774L75.8659 86.1053L73.745 84.8774L68.8332 81.7518L58.34 75.2772L53.4283 72.1516L37.3535 62.1049V27.6111C37.3535 24.039 40.2559 21.1366 43.9397 21.1366H110.248C113.82 21.0249 116.834 24.039 116.834 27.6111Z" fill="white"/>
<g filter="url(#filter1_d_2330_10758)">
<path d="M84.1634 41.9602L77.9203 48.2033L71.6772 41.9602C70.4286 40.7115 68.3475 40.5728 66.9602 41.9602C65.7115 43.2088 65.5728 45.2898 66.9602 46.6772L73.2033 52.9203L66.9602 59.1634C65.7115 60.4121 65.5728 62.4931 66.9602 63.8805C68.3475 65.2678 70.2898 65.2678 71.6772 63.8805L77.9203 57.6373L84.1634 63.8805C85.4121 65.1291 87.4931 65.2678 88.8805 63.8805C90.1291 62.6318 90.2678 60.5508 88.8805 59.1634L82.6373 52.9203L88.8805 46.6772C90.1291 45.4286 90.2678 43.3475 88.8805 41.9602C87.4931 40.5728 85.4121 40.7115 84.1634 41.9602Z" fill="url(#paint1_linear_2330_10758)"/>
</g>
<path opacity="0.5" d="M22.9534 52.1698L75.4196 55.6304L131.011 52.1698L128.89 62.1049C128.89 62.1049 76.6475 89.3427 76.9824 89.3427C77.3173 89.3427 23.065 57.0815 23.065 57.0815L22.9534 52.1698Z" fill="url(#paint2_linear_2330_10758)"/>
<path d="M131.793 52.393V107.092C131.681 110.217 130.23 112.897 127.997 114.794C126.1 116.469 123.532 117.585 120.741 117.585H33.335C31.4373 117.585 29.6512 117.139 28.0883 116.245C27.4186 115.911 26.7488 115.464 26.1906 114.906C24.9627 113.901 23.8464 112.45 23.2882 110.887C22.8417 109.771 22.5068 108.543 22.5068 107.315V107.203V52.393L71.4009 82.9797L75.6428 85.6588L77.094 84.7658L78.4336 83.9844L131.793 52.393Z" fill="#738DFF"/>
<path d="M128.109 114.794C126.211 116.469 123.644 117.585 120.853 117.585H33.335C31.4373 117.585 29.6512 117.139 28.0883 116.245C27.4186 115.911 26.7488 115.464 26.1906 114.906C24.9627 113.901 23.8464 112.45 23.2882 110.887C22.8417 109.771 22.5068 108.543 22.5068 107.315V107.203V52.393L28.2 55.8536L77.094 84.7658L78.4336 85.5472L78.5452 85.6588L122.416 111.557L128.109 114.794Z" fill="url(#paint3_linear_2330_10758)"/>
<path d="M78.4336 83.8727V87.6682L28.0884 116.246C27.4186 115.911 26.7489 115.464 26.1907 114.906C24.9628 113.901 23.8465 112.45 23.2883 110.887L72.294 81.8634L76.5359 84.5425L77.0941 84.7658L78.4336 83.8727Z" fill="url(#paint4_linear_2330_10758)"/>
<path d="M22.5068 52.393L77.094 84.7658" stroke="white" stroke-miterlimit="10"/>
<path d="M131.793 52.393V107.092C131.681 110.217 130.23 112.897 127.997 114.794C126.1 116.469 123.532 117.585 120.741 117.585H33.335C31.4373 117.585 29.6512 117.139 28.0884 116.245C27.4186 115.911 26.7488 115.464 26.1907 114.906L31.7722 111.557L75.6429 85.6588L77.094 84.7658L78.4336 83.9844L125.988 55.7419L131.793 52.393Z" fill="url(#paint5_linear_2330_10758)"/>
<path d="M131.793 52.393L78.4336 83.8727L77.094 84.7658L75.6429 85.6588L26.1907 114.794" stroke="white" stroke-miterlimit="10"/>
<path d="M118.62 90.6821H89.5966C88.9268 90.6821 88.3687 90.124 88.3687 89.4542C88.3687 88.7844 88.9268 88.2263 89.5966 88.2263H118.62C119.29 88.2263 119.848 88.7844 119.848 89.4542C119.96 90.124 119.402 90.6821 118.62 90.6821Z" fill="#CED7E2"/>
<path d="M118.62 99.0544H89.5966C88.9268 99.0544 88.3687 98.4963 88.3687 97.8265C88.3687 97.1567 88.9268 96.5985 89.5966 96.5985H118.62C119.29 96.5985 119.848 97.1567 119.848 97.8265C119.96 98.4963 119.402 99.0544 118.62 99.0544Z" fill="#CED7E2"/>
<path d="M124.648 116.469L128.221 114.683C128.109 114.794 128.109 114.794 127.997 114.906C127.997 114.906 127.997 114.906 127.886 114.906L124.648 116.469Z" fill="#526DFF"/>
<defs>
<filter id="filter0_d_2330_10758" x="0.506836" y="0.0898438" width="153.286" height="150.495" filterUnits="userSpaceOnUse" color-interpolation-filters="sRGB">
<feFlood flood-opacity="0" result="BackgroundImageFix"/>
<feColorMatrix in="SourceAlpha" type="matrix" values="0 0 0 0 0 0 0 0 0 0 0 0 0 0 0 0 0 0 127 0" result="hardAlpha"/>
<feOffset dy="11"/>
<feGaussianBlur stdDeviation="11"/>
<feColorMatrix type="matrix" values="0 0 0 0 0.397708 0 0 0 0 0.47749 0 0 0 0 0.575 0 0 0 0.27 0"/>
<feBlend mode="normal" in2="BackgroundImageFix" result="effect1_dropShadow_2330_10758"/>
<feBlend mode="normal" in="SourceGraphic" in2="effect1_dropShadow_2330_10758" result="shape"/>
</filter>
<filter id="filter1_d_2330_10758" x="50.9709" y="30.971" width="43.8987" height="43.95" filterUnits="userSpaceOnUse" color-interpolation-filters="sRGB">
<feFlood flood-opacity="0" result="BackgroundImageFix"/>
<feColorMatrix in="SourceAlpha" type="matrix" values="0 0 0 0 0 0 0 0 0 0 0 0 0 0 0 0 0 0 127 0" result="hardAlpha"/>
<feOffset dx="-5"/>
<feGaussianBlur stdDeviation="5"/>
<feColorMatrix type="matrix" values="0 0 0 0 0.397708 0 0 0 0 0.47749 0 0 0 0 0.575 0 0 0 0.2 0"/>
<feBlend mode="normal" in2="BackgroundImageFix" result="effect1_dropShadow_2330_10758"/>
<feBlend mode="normal" in="SourceGraphic" in2="effect1_dropShadow_2330_10758" result="shape"/>
</filter>
<linearGradient id="paint0_linear_2330_10758" x1="77.1061" y1="12.3382" x2="77.1061" y2="91.8291" gradientUnits="userSpaceOnUse">
<stop stop-color="#B0BACC"/>
<stop offset="1" stop-color="#969EAE"/>
</linearGradient>
<linearGradient id="paint1_linear_2330_10758" x1="67.7234" y1="42.7199" x2="80.027" y2="55.0236" gradientUnits="userSpaceOnUse">
<stop stop-color="#B0BACC"/>
<stop offset="1" stop-color="#969EAE"/>
</linearGradient>
<linearGradient id="paint2_linear_2330_10758" x1="76.9344" y1="101.128" x2="76.9344" y2="54.6748" gradientUnits="userSpaceOnUse">
<stop stop-color="#8A90B5"/>
<stop offset="1" stop-color="#A7AED2" stop-opacity="0"/>
</linearGradient>
<linearGradient id="paint3_linear_2330_10758" x1="75.2735" y1="50.8851" x2="75.2735" y2="118.288" gradientUnits="userSpaceOnUse">
<stop stop-color="#FDFEFF"/>
<stop offset="0.9964" stop-color="#ECF0F5"/>
</linearGradient>
<linearGradient id="paint4_linear_2330_10758" x1="54.01" y1="102.203" x2="49.7295" y2="95.9381" gradientUnits="userSpaceOnUse">
<stop stop-color="#D5D8E4"/>
<stop offset="1" stop-color="#E1E4F0" stop-opacity="0"/>
</linearGradient>
<linearGradient id="paint5_linear_2330_10758" x1="78.9573" y1="50.8851" x2="78.9573" y2="118.288" gradientUnits="userSpaceOnUse">
<stop stop-color="#FDFEFF"/>
<stop offset="0.9964" stop-color="#ECF0F5"/>
</linearGradient>
</defs>
</svg>
