<svg width="262" height="262" viewBox="0 0 262 262" fill="none" xmlns="http://www.w3.org/2000/svg">
<circle cx="131" cy="131" r="131" fill="white"/>
<path d="M84.7418 186.193C79.6695 181.217 74.9367 176.414 70.1278 171.689C68.3917 169.982 66.6916 168.057 64.5991 166.929C56.7494 162.698 54.4279 155.639 56.3766 147.905C57.3578 144.01 61.7016 140.914 64.6737 137.59C66.1774 135.908 68.6837 134.843 69.5872 132.951C75.1563 121.284 85.2248 115.478 97.0273 113.325C109.537 111.042 122.379 109.346 135.05 109.503C149.035 109.676 163.266 110.622 176.369 116.954C182.979 120.149 188.928 124.225 191.791 131.033C193.985 136.249 199 137.879 202.384 141.496C209.207 148.789 208.13 159.476 199.97 165.37C196.65 167.769 193.609 170.823 191.162 174.116C182.859 185.291 170.967 190.482 158.266 194.164C146.096 197.694 133.462 197.937 120.973 197.032C108.35 196.117 96.2413 192.59 84.7418 186.193ZM106.673 168.827C111.849 169.043 115.78 166.828 117.125 161.87C118.698 156.072 117.896 150.504 113.038 146.111C109.061 142.515 104.615 141.513 100.958 143.379C96.7447 145.53 94.5668 152.837 95.2791 156.611C96.4532 162.831 100.17 166.631 106.673 168.827ZM167.465 156.218C167.473 155.406 167.624 154.565 167.465 153.787C166.579 149.466 165.859 145.25 160.79 143.305C155.508 141.278 152.063 143.541 148.679 147.033C145.412 150.405 144.769 154.454 144.973 158.918C145.33 166.737 152.362 170.959 159.358 167.656C164.017 165.456 165.526 161.237 167.465 156.218Z" fill="#3369FF"/>
<path d="M188.68 65.5C197.521 67.2518 200.337 73.2778 195.473 80.0613C189.132 88.9057 181.382 96.3371 171.189 100.645C167.171 102.344 164.388 100.266 165.372 96.1249C166.323 92.119 168.071 88.1061 170.319 84.6486C174.014 78.9645 178.23 73.588 182.59 68.387C183.847 66.8871 186.353 66.4334 188.68 65.5Z" fill="#3369FF"/>
<path d="M90.4951 82.6556C92.5657 87.0878 94.6439 91.1291 96.2019 95.3619C96.7115 96.7464 96.4327 99.225 95.4881 100.119C94.5032 101.052 91.7462 101.464 90.6856 100.745C84.066 96.2551 77.5529 91.5724 71.3349 86.545C68.9566 84.6221 67.3373 81.6981 65.5692 79.0965C62.3816 74.4062 62.8966 71.8141 67.5536 67.8069C70.9886 64.8511 75.6228 64.5783 78.6625 67.9084C82.8209 72.464 86.4464 77.5058 90.4951 82.6556Z" fill="#3369FF"/>
</svg>
